<?xml version="1.0" standalone="no"?>
<!DOCTYPE svg PUBLIC "-//W3C//DTD SVG 20010904//EN"
 "http://www.w3.org/TR/2001/REC-SVG-20010904/DTD/svg10.dtd">
<svg version="1.0" xmlns="http://www.w3.org/2000/svg"
 width="512.000000pt" height="512.000000pt" viewBox="0 0 512.000000 512.000000"
 preserveAspectRatio="xMidYMid meet">
<metadata>
Created by potrace 1.15, written by Peter Selinger 2001-2017
</metadata>
<g transform="translate(0.000000,512.000000) scale(0.100000,-0.100000)"
fill="#000000" stroke="none">
<path d="M203 4958 c-174 -172 -196 -198 -191 -231 3 -19 32 5 192 163 103
102 192 193 197 203 8 14 5 17 -17 17 -21 0 -60 -33 -181 -152z"/>
<path d="M303 4858 c-140 -139 -264 -265 -275 -281 -10 -15 -18 -37 -16 -50 3
-18 49 23 292 263 158 157 292 293 297 303 8 14 5 17 -17 17 -22 0 -75 -47
-281 -252z"/>
<path d="M402 4758 c-194 -194 -362 -365 -373 -381 -11 -15 -19 -37 -17 -50 4
-18 67 40 392 363 213 212 392 393 397 403 8 14 5 17 -18 17 -22 0 -89 -62
-381 -352z"/>
<path d="M502 4658 c-249 -249 -462 -465 -473 -481 -11 -15 -19 -37 -17 -50 4
-18 84 57 492 463 268 267 492 493 497 503 8 14 5 17 -18 17 -22 0 -104 -76
-481 -452z"/>
<path d="M602 4558 c-304 -304 -562 -565 -573 -581 -11 -15 -19 -37 -17 -50 4
-18 101 75 592 563 323 322 592 593 597 603 8 14 5 17 -18 17 -23 0 -118 -91
-581 -552z"/>
<path d="M702 4458 c-359 -359 -662 -665 -673 -681 -11 -15 -19 -37 -17 -50 4
-18 118 92 692 663 378 377 692 693 697 703 8 14 5 17 -18 17 -23 0 -133 -106
-681 -652z"/>
<path d="M1356 4909 c-198 -199 -204 -208 -71 -123 46 29 325 302 325 317 0 4
-12 7 -27 7 -21 0 -67 -41 -227 -201z"/>
<path d="M3834 4988 c-68 -67 -124 -125 -124 -129 0 -4 10 -11 21 -14 18 -6
42 13 141 111 139 139 150 154 112 154 -20 0 -55 -29 -150 -122z"/>
<path d="M3999 4953 c-88 -86 -159 -160 -159 -164 0 -4 10 -11 21 -14 18 -6
47 18 176 146 85 85 159 162 164 172 8 14 5 17 -17 17 -21 0 -60 -34 -185
-157z"/>
<path d="M4157 4911 c-193 -192 -200 -199 -177 -211 21 -11 33 -2 217 181 107
107 199 202 204 212 8 14 5 17 -17 17 -22 0 -67 -39 -227 -199z"/>
<path d="M4319 4873 c-228 -226 -238 -238 -222 -255 16 -18 27 -9 256 219 131
131 243 246 248 256 8 14 5 17 -17 17 -22 0 -73 -45 -265 -237z"/>
<path d="M4474 4828 c-221 -219 -281 -285 -272 -295 6 -7 16 -13 22 -13 12 0
586 571 586 583 0 4 -12 7 -27 7 -21 0 -80 -53 -309 -282z"/>
<path d="M4626 4780 c-316 -314 -330 -330 -313 -347 17 -17 32 -3 348 312 182
182 335 338 340 348 8 14 5 17 -18 17 -22 0 -85 -58 -357 -330z"/>
<path d="M4755 4708 c-343 -341 -359 -358 -342 -375 16 -17 33 -2 343 307 179
179 334 337 345 353 11 15 19 37 17 50 -4 18 -62 -35 -363 -335z"/>
<path d="M4806 4559 c-292 -290 -308 -307 -296 -329 12 -22 23 -12 292 256
154 154 288 291 299 307 11 15 19 37 17 50 -4 18 -53 -26 -312 -284z"/>
<path d="M4848 4403 c-142 -142 -258 -263 -258 -269 0 -6 6 -16 13 -23 21 -16
517 485 517 522 0 15 -3 27 -7 27 -4 0 -123 -116 -265 -257z"/>
<path d="M4892 4245 c-210 -208 -222 -221 -208 -240 14 -19 24 -11 206 170
213 211 233 235 228 268 -3 19 -38 -12 -226 -198z"/>
<path d="M4927 4081 c-172 -170 -179 -179 -165 -200 14 -20 20 -15 186 153
135 136 172 179 172 200 0 14 -3 26 -7 26 -4 0 -88 -80 -186 -179z"/>
<path d="M804 4106 c-17 -8 -44 -31 -60 -52 l-29 -37 0 -1158 c0 -1154 0
-1158 21 -1185 11 -15 33 -37 48 -48 27 -21 33 -21 1217 -24 l1190 -2 -88 80
-88 80 -1072 0 -1073 0 0 1000 0 1000 1540 0 1540 0 0 -900 0 -899 80 -86 80
-85 -2 1113 -3 1114 -27 35 c-56 74 83 68 -1670 68 -1303 -1 -1578 -3 -1604
-14z m175 -106 c28 -14 44 -61 32 -93 -33 -86 -151 -63 -151 29 0 55 68 92
119 64z m240 0 c28 -14 44 -61 32 -93 -33 -86 -151 -63 -151 29 0 55 68 92
119 64z"/>
<path d="M4968 3921 c-138 -135 -146 -145 -135 -168 10 -23 13 -21 130 94 138
137 160 165 155 196 -3 19 -25 2 -150 -122z"/>
<path d="M212 3766 c-162 -163 -202 -208 -202 -230 0 -22 3 -25 18 -17 9 5 79
72 154 148 95 96 152 163 187 221 28 45 50 82 48 82 -2 0 -94 -92 -205 -204z"/>
<path d="M2380 3562 c-90 -24 -191 -65 -187 -76 2 -5 145 -86 318 -179 173
-93 324 -178 337 -189 44 -42 35 -61 -179 -387 -111 -168 -211 -314 -221 -323
-11 -10 -35 -18 -54 -18 -29 0 -74 33 -321 230 -158 126 -291 230 -295 230
-16 0 -8 -177 11 -252 74 -290 286 -503 576 -578 130 -34 337 -27 447 15 12 5
63 -37 189 -152 651 -597 1020 -928 1054 -946 32 -17 57 -22 125 -22 99 0 144
19 203 84 52 58 70 104 70 186 1 125 70 41 -819 996 l-322 345 20 74 c26 106
26 278 -2 385 -77 299 -320 530 -614 584 -89 16 -260 13 -336 -7z m1851 -2269
c39 -23 63 -76 55 -122 -8 -50 -63 -101 -111 -101 -76 0 -125 49 -125 126 0
39 5 51 34 80 28 28 42 34 76 34 23 0 55 -8 71 -17z"/>
<path d="M4985 1538 c-102 -101 -138 -143 -168 -200 l-39 -73 152 150 c171
170 193 196 188 228 -3 19 -22 4 -133 -105z"/>
<path d="M4396 750 c-394 -393 -722 -723 -727 -732 -8 -15 -5 -18 18 -18 23 0
137 110 711 683 376 375 692 694 703 710 11 15 19 37 17 50 -4 18 -124 -97
-722 -693z"/>
<path d="M137 1291 c-98 -99 -127 -135 -127 -155 0 -39 15 -27 157 116 114
115 121 124 109 146 -12 22 -16 19 -139 -107z"/>
<path d="M172 1126 c-128 -129 -162 -169 -162 -190 0 -22 3 -25 18 -17 9 5 88
82 176 169 151 152 158 161 144 181 -14 20 -20 15 -176 -143z"/>
<path d="M4496 650 c-339 -338 -622 -623 -627 -632 -8 -15 -5 -18 18 -18 23 0
123 95 611 583 321 320 592 594 603 610 11 15 19 37 17 50 -4 18 -106 -80
-622 -593z"/>
<path d="M207 961 c-156 -157 -197 -204 -197 -225 0 -14 3 -26 7 -26 4 0 100
93 214 206 184 183 206 209 196 225 -7 11 -14 19 -17 19 -4 0 -95 -89 -203
-199z"/>
<path d="M4596 550 c-284 -283 -522 -523 -527 -533 -8 -14 -5 -17 18 -17 23 0
108 81 511 483 266 265 492 494 503 510 11 15 19 37 17 50 -4 18 -89 -62 -522
-493z"/>
<path d="M247 802 c-192 -193 -237 -244 -237 -266 0 -22 3 -25 18 -17 9 5 125
118 256 250 207 207 238 242 227 255 -8 9 -16 16 -20 16 -4 0 -114 -107 -244
-238z"/>
<path d="M292 647 c-229 -230 -282 -289 -282 -310 0 -15 3 -27 7 -27 4 0 139
131 300 292 249 248 290 294 282 310 -5 10 -13 18 -17 18 -4 0 -135 -127 -290
-283z"/>
<path d="M4696 450 c-229 -228 -422 -423 -427 -432 -8 -15 -5 -18 18 -18 22 0
93 66 411 383 211 210 392 394 403 410 11 15 19 37 17 50 -4 18 -72 -45 -422
-393z"/>
<path d="M337 492 c-269 -270 -327 -333 -327 -355 0 -23 3 -26 18 -18 9 5 165
158 345 338 248 249 326 333 321 346 -3 9 -11 17 -18 17 -6 0 -159 -148 -339
-328z"/>
<path d="M410 363 c-298 -300 -351 -357 -333 -361 13 -2 35 6 50 17 16 11 174
166 352 345 281 281 323 327 312 340 -8 9 -16 16 -20 16 -3 0 -166 -161 -361
-357z"/>
<path d="M4796 350 c-174 -173 -322 -323 -327 -332 -8 -15 -5 -18 17 -18 23 0
80 52 312 282 156 156 293 295 303 311 11 15 19 37 17 50 -4 18 -54 -28 -322
-293z"/>
<path d="M565 318 c-261 -262 -306 -312 -288 -316 13 -2 35 6 50 17 16 11 153
145 306 298 265 267 277 280 259 296 -17 16 -33 2 -327 -295z"/>
<path d="M721 276 c-143 -144 -261 -265 -261 -269 0 -4 12 -7 27 -7 21 0 76
49 280 252 139 139 253 255 253 258 0 3 -8 10 -19 17 -16 10 -48 -19 -280
-251z"/>
<path d="M4896 250 c-119 -118 -222 -223 -227 -232 -8 -15 -5 -18 17 -18 21 0
65 37 211 183 205 202 226 227 221 260 -3 19 -37 -11 -222 -193z"/>
<path d="M877 232 c-119 -120 -217 -221 -217 -225 0 -4 12 -7 27 -7 21 0 69
43 240 212 191 190 212 214 196 225 -9 7 -19 13 -23 13 -3 0 -103 -98 -223
-218z"/>
<path d="M1037 192 c-97 -98 -177 -181 -177 -185 0 -4 12 -7 26 -7 37 0 379
337 363 357 -6 7 -17 13 -23 13 -6 0 -91 -80 -189 -178z"/>
<path d="M3775 301 c-94 -53 -333 -293 -298 -299 13 -2 35 6 50 17 30 21 331
321 323 321 -3 0 -36 -18 -75 -39z"/>
<path d="M1202 157 c-78 -79 -142 -147 -142 -150 0 -4 12 -7 26 -7 20 0 58 32
166 137 125 124 137 139 122 150 -10 7 -21 13 -24 13 -3 0 -70 -64 -148 -143z"/>
<path d="M4996 150 c-136 -133 -149 -150 -111 -150 18 0 49 23 111 82 102 98
127 130 122 161 -3 19 -19 7 -122 -93z"/>
<path d="M1364 118 c-95 -98 -106 -113 -87 -116 30 -4 60 18 163 123 69 69 82
87 70 95 -8 5 -20 10 -26 10 -5 0 -59 -50 -120 -112z"/>
</g>
</svg>
